<mxfile host="Electron" modified="2024-05-19T13:24:00.766Z" agent="Mozilla/5.0 (Windows NT 10.0; Win64; x64) AppleWebKit/537.36 (KHTML, like Gecko) draw.io/24.4.0 Chrome/120.0.6099.109 Electron/28.1.0 Safari/537.36" etag="M9RORPQSaFg69SVj_GvD" version="24.4.0" type="device">
  <diagram name="Page-1" id="oKbokWPB-RTK2uymZRS2">
    <mxGraphModel dx="4810" dy="5900" grid="1" gridSize="10" guides="1" tooltips="1" connect="1" arrows="1" fold="1" page="1" pageScale="1" pageWidth="850" pageHeight="1100" math="0" shadow="0">
      <root>
        <mxCell id="0" />
        <mxCell id="1" parent="0" />
        <mxCell id="GezRIx_3L2gmqNPGk9K0-1" value="User" style="swimlane;whiteSpace=wrap;html=1;" parent="1" vertex="1">
          <mxGeometry x="-710" y="29" width="410" height="1241" as="geometry" />
        </mxCell>
        <mxCell id="GezRIx_3L2gmqNPGk9K0-2" value="" style="edgeStyle=orthogonalEdgeStyle;rounded=0;orthogonalLoop=1;jettySize=auto;html=1;" parent="GezRIx_3L2gmqNPGk9K0-1" source="GezRIx_3L2gmqNPGk9K0-3" target="GezRIx_3L2gmqNPGk9K0-6" edge="1">
          <mxGeometry relative="1" as="geometry" />
        </mxCell>
        <mxCell id="GezRIx_3L2gmqNPGk9K0-3" value="&lt;span data-lucid-type=&quot;application/vnd.lucid.text&quot; data-lucid-content=&quot;{&amp;quot;t&amp;quot;:&amp;quot;User navigates to the sign up page&amp;quot;,&amp;quot;m&amp;quot;:[{&amp;quot;s&amp;quot;:0,&amp;quot;n&amp;quot;:&amp;quot;s&amp;quot;,&amp;quot;v&amp;quot;:22.22222222222222,&amp;quot;e&amp;quot;:34},{&amp;quot;s&amp;quot;:0,&amp;quot;n&amp;quot;:&amp;quot;fsp&amp;quot;,&amp;quot;v&amp;quot;:&amp;quot;ss_presetShapeStyle1_textStyle&amp;quot;,&amp;quot;e&amp;quot;:34},{&amp;quot;s&amp;quot;:0,&amp;quot;n&amp;quot;:&amp;quot;fsp2&amp;quot;,&amp;quot;v&amp;quot;:&amp;quot;ss_presetShapeStyle1_textStyle&amp;quot;,&amp;quot;e&amp;quot;:34}]}&quot;&gt;&lt;span style=&quot;&quot;&gt;&lt;font style=&quot;font-size: 12px;&quot;&gt;User navigates to Statistics tab&lt;/font&gt;&lt;/span&gt;&lt;/span&gt;" style="rounded=1;whiteSpace=wrap;html=1;fontColor=default;" parent="GezRIx_3L2gmqNPGk9K0-1" vertex="1">
          <mxGeometry x="145" y="161" width="120" height="60" as="geometry" />
        </mxCell>
        <mxCell id="GezRIx_3L2gmqNPGk9K0-4" value="" style="edgeStyle=orthogonalEdgeStyle;rounded=0;orthogonalLoop=1;jettySize=auto;html=1;" parent="GezRIx_3L2gmqNPGk9K0-1" source="GezRIx_3L2gmqNPGk9K0-5" target="GezRIx_3L2gmqNPGk9K0-3" edge="1">
          <mxGeometry relative="1" as="geometry" />
        </mxCell>
        <mxCell id="GezRIx_3L2gmqNPGk9K0-5" value="" style="ellipse;whiteSpace=wrap;html=1;aspect=fixed;fillColor=#000000;" parent="GezRIx_3L2gmqNPGk9K0-1" vertex="1">
          <mxGeometry x="180" y="50" width="50" height="50" as="geometry" />
        </mxCell>
        <mxCell id="GezRIx_3L2gmqNPGk9K0-6" value="User selects the stats they wish to view" style="rounded=1;whiteSpace=wrap;html=1;" parent="GezRIx_3L2gmqNPGk9K0-1" vertex="1">
          <mxGeometry x="145" y="271" width="120" height="60" as="geometry" />
        </mxCell>
        <mxCell id="GezRIx_3L2gmqNPGk9K0-8" style="edgeStyle=none;rounded=0;orthogonalLoop=1;jettySize=auto;html=1;exitX=0.5;exitY=0;exitDx=0;exitDy=0;entryX=0.5;entryY=1;entryDx=0;entryDy=0;" parent="GezRIx_3L2gmqNPGk9K0-1" source="GezRIx_3L2gmqNPGk9K0-9" target="GezRIx_3L2gmqNPGk9K0-6" edge="1">
          <mxGeometry relative="1" as="geometry" />
        </mxCell>
        <mxCell id="GezRIx_3L2gmqNPGk9K0-81" style="edgeStyle=orthogonalEdgeStyle;rounded=0;orthogonalLoop=1;jettySize=auto;html=1;exitX=0.5;exitY=1;exitDx=0;exitDy=0;entryX=0.5;entryY=0;entryDx=0;entryDy=0;" parent="GezRIx_3L2gmqNPGk9K0-1" source="GezRIx_3L2gmqNPGk9K0-9" target="GezRIx_3L2gmqNPGk9K0-11" edge="1">
          <mxGeometry relative="1" as="geometry" />
        </mxCell>
        <mxCell id="GezRIx_3L2gmqNPGk9K0-9" value="User views stats" style="rounded=1;whiteSpace=wrap;html=1;" parent="GezRIx_3L2gmqNPGk9K0-1" vertex="1">
          <mxGeometry x="145" y="931" width="120" height="60" as="geometry" />
        </mxCell>
        <mxCell id="GezRIx_3L2gmqNPGk9K0-10" value="" style="group" parent="GezRIx_3L2gmqNPGk9K0-1" vertex="1" connectable="0">
          <mxGeometry x="180" y="1091" width="50" height="50" as="geometry" />
        </mxCell>
        <mxCell id="GezRIx_3L2gmqNPGk9K0-11" value="" style="ellipse;whiteSpace=wrap;html=1;aspect=fixed;fillColor=none;strokeWidth=3;movable=1;resizable=1;rotatable=1;deletable=1;editable=1;locked=0;connectable=1;" parent="GezRIx_3L2gmqNPGk9K0-10" vertex="1">
          <mxGeometry width="50" height="50" as="geometry" />
        </mxCell>
        <mxCell id="GezRIx_3L2gmqNPGk9K0-12" value="" style="ellipse;whiteSpace=wrap;html=1;aspect=fixed;fillColor=#000000;movable=1;resizable=1;rotatable=1;deletable=1;editable=1;locked=0;connectable=1;" parent="GezRIx_3L2gmqNPGk9K0-10" vertex="1">
          <mxGeometry x="7.5" y="7.5" width="35" height="35" as="geometry" />
        </mxCell>
        <mxCell id="GezRIx_3L2gmqNPGk9K0-18" value="Program" style="swimlane;whiteSpace=wrap;html=1;" parent="1" vertex="1">
          <mxGeometry x="-300" y="29" width="1470" height="1241" as="geometry" />
        </mxCell>
        <mxCell id="GezRIx_3L2gmqNPGk9K0-83" style="edgeStyle=orthogonalEdgeStyle;rounded=0;orthogonalLoop=1;jettySize=auto;html=1;exitX=0.5;exitY=1;exitDx=0;exitDy=0;entryX=0.5;entryY=0;entryDx=0;entryDy=0;" parent="GezRIx_3L2gmqNPGk9K0-18" source="GezRIx_3L2gmqNPGk9K0-20" target="GezRIx_3L2gmqNPGk9K0-82" edge="1">
          <mxGeometry relative="1" as="geometry" />
        </mxCell>
        <mxCell id="GezRIx_3L2gmqNPGk9K0-20" value="System checks user authority" style="rounded=1;whiteSpace=wrap;html=1;" parent="GezRIx_3L2gmqNPGk9K0-18" vertex="1">
          <mxGeometry x="757.5" y="270" width="120" height="60" as="geometry" />
        </mxCell>
        <mxCell id="GezRIx_3L2gmqNPGk9K0-21" style="edgeStyle=none;rounded=0;orthogonalLoop=1;jettySize=auto;html=1;exitX=0;exitY=0.5;exitDx=0;exitDy=0;entryX=0.5;entryY=0;entryDx=0;entryDy=0;curved=0;jumpStyle=none;" parent="GezRIx_3L2gmqNPGk9K0-18" source="GezRIx_3L2gmqNPGk9K0-22" target="GezRIx_3L2gmqNPGk9K0-25" edge="1">
          <mxGeometry relative="1" as="geometry">
            <mxPoint x="490" y="582" as="targetPoint" />
            <Array as="points">
              <mxPoint x="490" y="541" />
            </Array>
          </mxGeometry>
        </mxCell>
        <mxCell id="GezRIx_3L2gmqNPGk9K0-84" style="edgeStyle=orthogonalEdgeStyle;rounded=0;orthogonalLoop=1;jettySize=auto;html=1;entryX=0.5;entryY=0;entryDx=0;entryDy=0;exitX=0.283;exitY=0.92;exitDx=0;exitDy=0;exitPerimeter=0;" parent="GezRIx_3L2gmqNPGk9K0-18" source="GezRIx_3L2gmqNPGk9K0-82" target="GezRIx_3L2gmqNPGk9K0-22" edge="1">
          <mxGeometry relative="1" as="geometry">
            <mxPoint x="610" y="481" as="targetPoint" />
            <mxPoint x="670" y="481" as="sourcePoint" />
          </mxGeometry>
        </mxCell>
        <mxCell id="GezRIx_3L2gmqNPGk9K0-22" value="" style="rhombus;whiteSpace=wrap;html=1;" parent="GezRIx_3L2gmqNPGk9K0-18" vertex="1">
          <mxGeometry x="610" y="521" width="40" height="40" as="geometry" />
        </mxCell>
        <mxCell id="GezRIx_3L2gmqNPGk9K0-23" style="edgeStyle=none;rounded=0;orthogonalLoop=1;jettySize=auto;html=1;exitX=0.5;exitY=1;exitDx=0;exitDy=0;entryX=0;entryY=0.5;entryDx=0;entryDy=0;" parent="GezRIx_3L2gmqNPGk9K0-18" source="GezRIx_3L2gmqNPGk9K0-25" target="GezRIx_3L2gmqNPGk9K0-32" edge="1">
          <mxGeometry relative="1" as="geometry">
            <Array as="points">
              <mxPoint x="490" y="782" />
            </Array>
          </mxGeometry>
        </mxCell>
        <mxCell id="GezRIx_3L2gmqNPGk9K0-24" style="edgeStyle=none;rounded=0;orthogonalLoop=1;jettySize=auto;html=1;exitX=0.5;exitY=1;exitDx=0;exitDy=0;entryX=0.5;entryY=0;entryDx=0;entryDy=0;" parent="GezRIx_3L2gmqNPGk9K0-18" source="GezRIx_3L2gmqNPGk9K0-25" target="GezRIx_3L2gmqNPGk9K0-57" edge="1">
          <mxGeometry relative="1" as="geometry" />
        </mxCell>
        <mxCell id="GezRIx_3L2gmqNPGk9K0-25" value="System fetches limited statistics" style="rounded=1;whiteSpace=wrap;html=1;" parent="GezRIx_3L2gmqNPGk9K0-18" vertex="1">
          <mxGeometry x="430" y="582" width="120" height="60" as="geometry" />
        </mxCell>
        <mxCell id="GezRIx_3L2gmqNPGk9K0-26" style="edgeStyle=none;rounded=0;orthogonalLoop=1;jettySize=auto;html=1;exitX=0.5;exitY=1;exitDx=0;exitDy=0;entryX=1;entryY=0.5;entryDx=0;entryDy=0;" parent="GezRIx_3L2gmqNPGk9K0-18" source="GezRIx_3L2gmqNPGk9K0-27" target="GezRIx_3L2gmqNPGk9K0-32" edge="1">
          <mxGeometry relative="1" as="geometry">
            <mxPoint x="770" y="792" as="targetPoint" />
            <Array as="points">
              <mxPoint x="770" y="662" />
              <mxPoint x="770" y="782" />
            </Array>
          </mxGeometry>
        </mxCell>
        <mxCell id="GezRIx_3L2gmqNPGk9K0-27" value="System fetches unrestricted statistics" style="rounded=1;whiteSpace=wrap;html=1;" parent="GezRIx_3L2gmqNPGk9K0-18" vertex="1">
          <mxGeometry x="710" y="622" width="120" height="60" as="geometry" />
        </mxCell>
        <mxCell id="GezRIx_3L2gmqNPGk9K0-28" style="edgeStyle=none;rounded=0;orthogonalLoop=1;jettySize=auto;html=1;exitX=1;exitY=0.5;exitDx=0;exitDy=0;entryX=0.459;entryY=-0.119;entryDx=0;entryDy=0;entryPerimeter=0;" parent="GezRIx_3L2gmqNPGk9K0-18" source="GezRIx_3L2gmqNPGk9K0-22" target="GezRIx_3L2gmqNPGk9K0-27" edge="1">
          <mxGeometry relative="1" as="geometry">
            <Array as="points">
              <mxPoint x="765" y="541" />
            </Array>
          </mxGeometry>
        </mxCell>
        <mxCell id="GezRIx_3L2gmqNPGk9K0-29" value="[Is User]" style="text;html=1;align=center;verticalAlign=middle;resizable=0;points=[];autosize=1;strokeColor=none;fillColor=none;" parent="GezRIx_3L2gmqNPGk9K0-18" vertex="1">
          <mxGeometry x="520" y="512" width="70" height="30" as="geometry" />
        </mxCell>
        <mxCell id="GezRIx_3L2gmqNPGk9K0-30" value="[Is Admin]" style="text;html=1;align=center;verticalAlign=middle;resizable=0;points=[];autosize=1;strokeColor=none;fillColor=none;" parent="GezRIx_3L2gmqNPGk9K0-18" vertex="1">
          <mxGeometry x="675" y="512" width="80" height="30" as="geometry" />
        </mxCell>
        <mxCell id="GezRIx_3L2gmqNPGk9K0-32" value="" style="rhombus;whiteSpace=wrap;html=1;" parent="GezRIx_3L2gmqNPGk9K0-18" vertex="1">
          <mxGeometry x="610" y="761.5" width="40" height="40" as="geometry" />
        </mxCell>
        <mxCell id="GezRIx_3L2gmqNPGk9K0-129" style="edgeStyle=orthogonalEdgeStyle;rounded=0;orthogonalLoop=1;jettySize=auto;html=1;entryX=0.5;entryY=0;entryDx=0;entryDy=0;exitX=0.284;exitY=0.9;exitDx=0;exitDy=0;exitPerimeter=0;" parent="GezRIx_3L2gmqNPGk9K0-18" source="GezRIx_3L2gmqNPGk9K0-126" target="GezRIx_3L2gmqNPGk9K0-33" edge="1">
          <mxGeometry relative="1" as="geometry">
            <mxPoint x="660" y="901" as="targetPoint" />
            <mxPoint x="630" y="881" as="sourcePoint" />
          </mxGeometry>
        </mxCell>
        <mxCell id="GezRIx_3L2gmqNPGk9K0-33" value="Arrange stats as appropriate table or graphs" style="rounded=1;whiteSpace=wrap;html=1;" parent="GezRIx_3L2gmqNPGk9K0-18" vertex="1">
          <mxGeometry x="570" y="931" width="120" height="60" as="geometry" />
        </mxCell>
        <mxCell id="GezRIx_3L2gmqNPGk9K0-35" value="Sends the user a notification to try viewing stats again later" style="rounded=1;whiteSpace=wrap;html=1;" parent="GezRIx_3L2gmqNPGk9K0-18" vertex="1">
          <mxGeometry x="170" y="161" width="120" height="60" as="geometry" />
        </mxCell>
        <mxCell id="GezRIx_3L2gmqNPGk9K0-36" style="edgeStyle=none;rounded=0;orthogonalLoop=1;jettySize=auto;html=1;exitX=0.5;exitY=0;exitDx=0;exitDy=0;entryX=0;entryY=0.5;entryDx=0;entryDy=0;" parent="GezRIx_3L2gmqNPGk9K0-18" source="GezRIx_3L2gmqNPGk9K0-38" target="GezRIx_3L2gmqNPGk9K0-35" edge="1">
          <mxGeometry relative="1" as="geometry">
            <Array as="points">
              <mxPoint x="40" y="191" />
            </Array>
          </mxGeometry>
        </mxCell>
        <mxCell id="GezRIx_3L2gmqNPGk9K0-37" style="edgeStyle=none;rounded=0;orthogonalLoop=1;jettySize=auto;html=1;exitX=0.5;exitY=1;exitDx=0;exitDy=0;entryX=0;entryY=0.5;entryDx=0;entryDy=0;" parent="GezRIx_3L2gmqNPGk9K0-18" source="GezRIx_3L2gmqNPGk9K0-38" target="GezRIx_3L2gmqNPGk9K0-41" edge="1">
          <mxGeometry relative="1" as="geometry">
            <Array as="points">
              <mxPoint x="40" y="411" />
            </Array>
          </mxGeometry>
        </mxCell>
        <mxCell id="GezRIx_3L2gmqNPGk9K0-38" value="" style="rhombus;whiteSpace=wrap;html=1;" parent="GezRIx_3L2gmqNPGk9K0-18" vertex="1">
          <mxGeometry x="20" y="281" width="40" height="40" as="geometry" />
        </mxCell>
        <mxCell id="GezRIx_3L2gmqNPGk9K0-39" value="[System is down]" style="text;html=1;align=center;verticalAlign=middle;resizable=0;points=[];autosize=1;strokeColor=none;fillColor=none;" parent="GezRIx_3L2gmqNPGk9K0-18" vertex="1">
          <mxGeometry x="50" y="151" width="110" height="30" as="geometry" />
        </mxCell>
        <mxCell id="GezRIx_3L2gmqNPGk9K0-40" style="edgeStyle=none;rounded=0;orthogonalLoop=1;jettySize=auto;html=1;exitX=1;exitY=0.5;exitDx=0;exitDy=0;" parent="GezRIx_3L2gmqNPGk9K0-18" source="GezRIx_3L2gmqNPGk9K0-41" edge="1">
          <mxGeometry relative="1" as="geometry">
            <mxPoint x="370" y="321" as="targetPoint" />
            <Array as="points">
              <mxPoint x="370" y="411" />
            </Array>
          </mxGeometry>
        </mxCell>
        <mxCell id="GezRIx_3L2gmqNPGk9K0-41" value="Initialise database" style="rounded=1;whiteSpace=wrap;html=1;" parent="GezRIx_3L2gmqNPGk9K0-18" vertex="1">
          <mxGeometry x="170" y="381" width="120" height="60" as="geometry" />
        </mxCell>
        <mxCell id="GezRIx_3L2gmqNPGk9K0-42" style="edgeStyle=none;rounded=0;orthogonalLoop=1;jettySize=auto;html=1;exitX=1;exitY=0.5;exitDx=0;exitDy=0;entryX=0;entryY=0.5;entryDx=0;entryDy=0;" parent="GezRIx_3L2gmqNPGk9K0-18" source="GezRIx_3L2gmqNPGk9K0-43" target="GezRIx_3L2gmqNPGk9K0-20" edge="1">
          <mxGeometry relative="1" as="geometry" />
        </mxCell>
        <mxCell id="GezRIx_3L2gmqNPGk9K0-43" value="" style="rhombus;whiteSpace=wrap;html=1;" parent="GezRIx_3L2gmqNPGk9K0-18" vertex="1">
          <mxGeometry x="350" y="280" width="40" height="40" as="geometry" />
        </mxCell>
        <mxCell id="GezRIx_3L2gmqNPGk9K0-44" value="[System operational]" style="text;html=1;align=center;verticalAlign=middle;resizable=0;points=[];autosize=1;strokeColor=none;fillColor=none;" parent="GezRIx_3L2gmqNPGk9K0-18" vertex="1">
          <mxGeometry x="30" y="421" width="130" height="30" as="geometry" />
        </mxCell>
        <mxCell id="GezRIx_3L2gmqNPGk9K0-46" style="edgeStyle=none;rounded=0;orthogonalLoop=1;jettySize=auto;html=1;exitX=0;exitY=0.5;exitDx=0;exitDy=0;entryX=0.5;entryY=0;entryDx=0;entryDy=0;curved=0;jumpStyle=none;" parent="GezRIx_3L2gmqNPGk9K0-18" source="GezRIx_3L2gmqNPGk9K0-47" target="GezRIx_3L2gmqNPGk9K0-49" edge="1">
          <mxGeometry relative="1" as="geometry">
            <mxPoint x="910" y="582" as="targetPoint" />
            <Array as="points">
              <mxPoint x="910" y="541" />
            </Array>
          </mxGeometry>
        </mxCell>
        <mxCell id="GezRIx_3L2gmqNPGk9K0-85" style="edgeStyle=orthogonalEdgeStyle;rounded=0;orthogonalLoop=1;jettySize=auto;html=1;exitX=0.768;exitY=0.94;exitDx=0;exitDy=0;exitPerimeter=0;entryX=0.48;entryY=-0.075;entryDx=0;entryDy=0;entryPerimeter=0;" parent="GezRIx_3L2gmqNPGk9K0-18" source="GezRIx_3L2gmqNPGk9K0-82" target="GezRIx_3L2gmqNPGk9K0-47" edge="1">
          <mxGeometry relative="1" as="geometry">
            <mxPoint x="1020" y="491" as="targetPoint" />
          </mxGeometry>
        </mxCell>
        <mxCell id="GezRIx_3L2gmqNPGk9K0-47" value="" style="rhombus;whiteSpace=wrap;html=1;" parent="GezRIx_3L2gmqNPGk9K0-18" vertex="1">
          <mxGeometry x="1030" y="521" width="40" height="40" as="geometry" />
        </mxCell>
        <mxCell id="GezRIx_3L2gmqNPGk9K0-48" style="edgeStyle=none;rounded=0;orthogonalLoop=1;jettySize=auto;html=1;exitX=0.5;exitY=1;exitDx=0;exitDy=0;entryX=0;entryY=0.5;entryDx=0;entryDy=0;" parent="GezRIx_3L2gmqNPGk9K0-18" source="GezRIx_3L2gmqNPGk9K0-49" edge="1">
          <mxGeometry relative="1" as="geometry">
            <Array as="points">
              <mxPoint x="910" y="782" />
            </Array>
            <mxPoint x="1030" y="781.5" as="targetPoint" />
          </mxGeometry>
        </mxCell>
        <mxCell id="GezRIx_3L2gmqNPGk9K0-49" value="Disable the ability to download and/or export data" style="rounded=1;whiteSpace=wrap;html=1;" parent="GezRIx_3L2gmqNPGk9K0-18" vertex="1">
          <mxGeometry x="850" y="622" width="120" height="60" as="geometry" />
        </mxCell>
        <mxCell id="GezRIx_3L2gmqNPGk9K0-50" style="edgeStyle=none;rounded=0;orthogonalLoop=1;jettySize=auto;html=1;exitX=0.5;exitY=1;exitDx=0;exitDy=0;entryX=1;entryY=0.5;entryDx=0;entryDy=0;" parent="GezRIx_3L2gmqNPGk9K0-18" source="GezRIx_3L2gmqNPGk9K0-51" edge="1">
          <mxGeometry relative="1" as="geometry">
            <mxPoint x="1070" y="781.5" as="targetPoint" />
            <Array as="points">
              <mxPoint x="1190" y="662" />
              <mxPoint x="1190" y="782" />
            </Array>
          </mxGeometry>
        </mxCell>
        <mxCell id="GezRIx_3L2gmqNPGk9K0-51" value="Enable the ability to download and/or export data" style="rounded=1;whiteSpace=wrap;html=1;" parent="GezRIx_3L2gmqNPGk9K0-18" vertex="1">
          <mxGeometry x="1130" y="622" width="120" height="60" as="geometry" />
        </mxCell>
        <mxCell id="GezRIx_3L2gmqNPGk9K0-52" style="edgeStyle=none;rounded=0;orthogonalLoop=1;jettySize=auto;html=1;exitX=1;exitY=0.5;exitDx=0;exitDy=0;entryX=0.459;entryY=-0.119;entryDx=0;entryDy=0;entryPerimeter=0;" parent="GezRIx_3L2gmqNPGk9K0-18" source="GezRIx_3L2gmqNPGk9K0-47" target="GezRIx_3L2gmqNPGk9K0-51" edge="1">
          <mxGeometry relative="1" as="geometry">
            <Array as="points">
              <mxPoint x="1185" y="541" />
            </Array>
          </mxGeometry>
        </mxCell>
        <mxCell id="GezRIx_3L2gmqNPGk9K0-53" value="[User]" style="text;html=1;align=center;verticalAlign=middle;resizable=0;points=[];autosize=1;strokeColor=none;fillColor=none;" parent="GezRIx_3L2gmqNPGk9K0-18" vertex="1">
          <mxGeometry x="945" y="512" width="60" height="30" as="geometry" />
        </mxCell>
        <mxCell id="GezRIx_3L2gmqNPGk9K0-54" value="[Is Admin]" style="text;html=1;align=center;verticalAlign=middle;resizable=0;points=[];autosize=1;strokeColor=none;fillColor=none;" parent="GezRIx_3L2gmqNPGk9K0-18" vertex="1">
          <mxGeometry x="1095" y="512" width="80" height="30" as="geometry" />
        </mxCell>
        <mxCell id="GezRIx_3L2gmqNPGk9K0-56" value="" style="rhombus;whiteSpace=wrap;html=1;" parent="GezRIx_3L2gmqNPGk9K0-18" vertex="1">
          <mxGeometry x="1030" y="761.5" width="40" height="40" as="geometry" />
        </mxCell>
        <mxCell id="GezRIx_3L2gmqNPGk9K0-57" value="Inform the user they are viewing limited statistics" style="rounded=1;whiteSpace=wrap;html=1;" parent="GezRIx_3L2gmqNPGk9K0-18" vertex="1">
          <mxGeometry x="430" y="682" width="120" height="60" as="geometry" />
        </mxCell>
        <mxCell id="GezRIx_3L2gmqNPGk9K0-130" style="edgeStyle=orthogonalEdgeStyle;rounded=0;orthogonalLoop=1;jettySize=auto;html=1;entryX=0.5;entryY=0;entryDx=0;entryDy=0;exitX=0.769;exitY=1.014;exitDx=0;exitDy=0;exitPerimeter=0;" parent="GezRIx_3L2gmqNPGk9K0-18" source="GezRIx_3L2gmqNPGk9K0-126" target="GezRIx_3L2gmqNPGk9K0-58" edge="1">
          <mxGeometry relative="1" as="geometry">
            <mxPoint x="1090" y="891" as="targetPoint" />
            <mxPoint x="1020" y="911" as="sourcePoint" />
          </mxGeometry>
        </mxCell>
        <mxCell id="GezRIx_3L2gmqNPGk9K0-58" value="Generate a downloadable summary for the user" style="rounded=1;whiteSpace=wrap;html=1;" parent="GezRIx_3L2gmqNPGk9K0-18" vertex="1">
          <mxGeometry x="990" y="931" width="120" height="60" as="geometry" />
        </mxCell>
        <mxCell id="GezRIx_3L2gmqNPGk9K0-82" value="" style="rounded=0;whiteSpace=wrap;html=1;fillColor=#000000;" parent="GezRIx_3L2gmqNPGk9K0-18" vertex="1">
          <mxGeometry x="385" y="426" width="865" height="20" as="geometry" />
        </mxCell>
        <mxCell id="GezRIx_3L2gmqNPGk9K0-126" value="" style="rounded=0;whiteSpace=wrap;html=1;fillColor=#000000;" parent="GezRIx_3L2gmqNPGk9K0-18" vertex="1">
          <mxGeometry x="385" y="851" width="865" height="20" as="geometry" />
        </mxCell>
        <mxCell id="GezRIx_3L2gmqNPGk9K0-127" style="edgeStyle=orthogonalEdgeStyle;rounded=0;orthogonalLoop=1;jettySize=auto;html=1;exitX=0.5;exitY=1;exitDx=0;exitDy=0;entryX=0.768;entryY=-0.106;entryDx=0;entryDy=0;entryPerimeter=0;" parent="GezRIx_3L2gmqNPGk9K0-18" source="GezRIx_3L2gmqNPGk9K0-56" target="GezRIx_3L2gmqNPGk9K0-126" edge="1">
          <mxGeometry relative="1" as="geometry" />
        </mxCell>
        <mxCell id="GezRIx_3L2gmqNPGk9K0-128" style="edgeStyle=orthogonalEdgeStyle;rounded=0;orthogonalLoop=1;jettySize=auto;html=1;exitX=0.5;exitY=1;exitDx=0;exitDy=0;entryX=0.284;entryY=-0.165;entryDx=0;entryDy=0;entryPerimeter=0;" parent="GezRIx_3L2gmqNPGk9K0-18" source="GezRIx_3L2gmqNPGk9K0-32" target="GezRIx_3L2gmqNPGk9K0-126" edge="1">
          <mxGeometry relative="1" as="geometry" />
        </mxCell>
        <mxCell id="uakTPdbiSNVWX_ECrLHG-169" value="Kasup Wellage | s4074242&lt;br style=&quot;font-size: 8px;&quot;&gt;&lt;br style=&quot;font-size: 8px;&quot;&gt;Kurt Clado&amp;nbsp;&amp;nbsp;&amp;nbsp; | s4003781&lt;br style=&quot;font-size: 8px;&quot;&gt;&lt;br style=&quot;font-size: 8px;&quot;&gt;Timothy Nancarrow | s3950562" style="text;html=1;align=left;verticalAlign=top;whiteSpace=wrap;rounded=0;fontSize=8;fontStyle=2;strokeColor=default;dashed=1;dashPattern=1 4;" vertex="1" parent="GezRIx_3L2gmqNPGk9K0-18">
          <mxGeometry x="1290" y="51" width="150" height="80" as="geometry" />
        </mxCell>
        <mxCell id="GezRIx_3L2gmqNPGk9K0-59" style="edgeStyle=none;rounded=0;orthogonalLoop=1;jettySize=auto;html=1;exitX=1;exitY=0.5;exitDx=0;exitDy=0;entryX=0;entryY=0.5;entryDx=0;entryDy=0;" parent="1" source="GezRIx_3L2gmqNPGk9K0-6" target="GezRIx_3L2gmqNPGk9K0-38" edge="1">
          <mxGeometry relative="1" as="geometry" />
        </mxCell>
        <mxCell id="GezRIx_3L2gmqNPGk9K0-60" style="edgeStyle=none;rounded=0;orthogonalLoop=1;jettySize=auto;html=1;exitX=0;exitY=0.5;exitDx=0;exitDy=0;entryX=1;entryY=0.5;entryDx=0;entryDy=0;" parent="1" source="GezRIx_3L2gmqNPGk9K0-33" target="GezRIx_3L2gmqNPGk9K0-9" edge="1">
          <mxGeometry relative="1" as="geometry">
            <mxPoint x="-420" y="740" as="targetPoint" />
          </mxGeometry>
        </mxCell>
        <mxCell id="GezRIx_3L2gmqNPGk9K0-62" style="edgeStyle=orthogonalEdgeStyle;rounded=0;orthogonalLoop=1;jettySize=auto;html=1;exitX=0.5;exitY=0;exitDx=0;exitDy=0;entryX=1;entryY=0.5;entryDx=0;entryDy=0;" parent="1" source="GezRIx_3L2gmqNPGk9K0-35" target="GezRIx_3L2gmqNPGk9K0-3" edge="1">
          <mxGeometry relative="1" as="geometry" />
        </mxCell>
        <mxCell id="GezRIx_3L2gmqNPGk9K0-63" value="Admin" style="swimlane;whiteSpace=wrap;html=1;" parent="1" vertex="1">
          <mxGeometry x="1170" y="29" width="410" height="1241" as="geometry" />
        </mxCell>
        <mxCell id="GezRIx_3L2gmqNPGk9K0-75" style="edgeStyle=none;rounded=0;orthogonalLoop=1;jettySize=auto;html=1;exitX=0.5;exitY=1;exitDx=0;exitDy=0;entryX=0.5;entryY=0;entryDx=0;entryDy=0;" parent="GezRIx_3L2gmqNPGk9K0-63" source="GezRIx_3L2gmqNPGk9K0-76" target="GezRIx_3L2gmqNPGk9K0-78" edge="1">
          <mxGeometry relative="1" as="geometry" />
        </mxCell>
        <mxCell id="GezRIx_3L2gmqNPGk9K0-76" value="User downloads statistic report" style="rounded=1;whiteSpace=wrap;html=1;" parent="GezRIx_3L2gmqNPGk9K0-63" vertex="1">
          <mxGeometry x="145" y="931" width="120" height="60" as="geometry" />
        </mxCell>
        <mxCell id="GezRIx_3L2gmqNPGk9K0-77" value="" style="group" parent="GezRIx_3L2gmqNPGk9K0-63" vertex="1" connectable="0">
          <mxGeometry x="180" y="1081" width="50" height="50" as="geometry" />
        </mxCell>
        <mxCell id="GezRIx_3L2gmqNPGk9K0-78" value="" style="ellipse;whiteSpace=wrap;html=1;aspect=fixed;fillColor=none;strokeWidth=3;movable=1;resizable=1;rotatable=1;deletable=1;editable=1;locked=0;connectable=1;" parent="GezRIx_3L2gmqNPGk9K0-77" vertex="1">
          <mxGeometry width="50" height="50" as="geometry" />
        </mxCell>
        <mxCell id="GezRIx_3L2gmqNPGk9K0-79" value="" style="ellipse;whiteSpace=wrap;html=1;aspect=fixed;fillColor=#000000;movable=1;resizable=1;rotatable=1;deletable=1;editable=1;locked=0;connectable=1;" parent="GezRIx_3L2gmqNPGk9K0-77" vertex="1">
          <mxGeometry x="7.5" y="7.5" width="35" height="35" as="geometry" />
        </mxCell>
        <mxCell id="GezRIx_3L2gmqNPGk9K0-131" style="edgeStyle=orthogonalEdgeStyle;rounded=0;orthogonalLoop=1;jettySize=auto;html=1;exitX=1;exitY=0.5;exitDx=0;exitDy=0;entryX=0;entryY=0.5;entryDx=0;entryDy=0;" parent="1" source="GezRIx_3L2gmqNPGk9K0-58" target="GezRIx_3L2gmqNPGk9K0-76" edge="1">
          <mxGeometry relative="1" as="geometry" />
        </mxCell>
      </root>
    </mxGraphModel>
  </diagram>
</mxfile>
